<svg xmlns="http://www.w3.org/2000/svg" xmlns:xlink="http://www.w3.org/1999/xlink" width="150" zoomAndPan="magnify" viewBox="0 0 112.5 74.999997" height="100" preserveAspectRatio="xMidYMid meet" version="1.0"><defs><g/><clipPath id="9e29682d5d"><path d="M 0 0.164062 L 112.003906 0.164062 L 112.003906 74.832031 L 0 74.832031 Z M 0 0.164062 " clip-rule="nonzero"/></clipPath></defs><g clip-path="url(#9e29682d5d)"><path fill="#ffffff" d="M 0 0.164062 L 112.5 0.164062 L 112.5 75.164062 L 0 75.164062 Z M 0 0.164062 " fill-opacity="1" fill-rule="nonzero"/><path fill="#ffde59" d="M 0 0.164062 L 112.5 0.164062 L 112.5 75.164062 L 0 75.164062 Z M 0 0.164062 " fill-opacity="1" fill-rule="nonzero"/></g><g fill="#121010" fill-opacity="1"><g transform="translate(29.133981, 43.665921)"><g><path d="M 8 -12 L 7.257812 -12 C 7.058594 -12 6.898438 -11.917969 6.820312 -11.738281 L 4.71875 -6.820312 C 4.699219 -6.738281 4.621094 -6.699219 4.519531 -6.699219 C 4.398438 -6.699219 4.339844 -6.738281 4.320312 -6.820312 L 2.21875 -11.738281 C 2.140625 -11.917969 2 -12 1.78125 -12 L 1.039062 -12 C 0.859375 -12 0.71875 -11.859375 0.71875 -11.640625 L 0.71875 -0.320312 C 0.71875 -0.160156 0.859375 0 1.058594 0 L 2.121094 0 C 2.339844 0 2.480469 -0.140625 2.480469 -0.320312 L 2.480469 -7.898438 C 2.480469 -7.960938 2.519531 -8 2.601562 -8 C 2.660156 -8 2.71875 -7.960938 2.757812 -7.898438 L 4.140625 -4.097656 C 4.199219 -3.941406 4.339844 -3.859375 4.519531 -3.859375 C 4.71875 -3.859375 4.839844 -3.941406 4.898438 -4.097656 L 6.300781 -7.898438 C 6.320312 -7.960938 6.378906 -8 6.460938 -8 C 6.519531 -7.960938 6.558594 -7.9375 6.558594 -7.898438 L 6.558594 -0.320312 C 6.558594 -0.140625 6.738281 0 6.917969 0 L 8 0 C 8.179688 0 8.320312 -0.160156 8.320312 -0.320312 L 8.320312 -11.640625 C 8.320312 -11.859375 8.179688 -12 8 -12 Z M 8 -12 "/></g></g></g><g fill="#121010" fill-opacity="1"><g transform="translate(38.172566, 43.665921)"><g><path d="M 0.71875 -5.417969 C 0.71875 -2.238281 1.179688 0.160156 4.5 0.160156 C 7.71875 0.160156 8.320312 -2.039062 8.320312 -5.417969 C 8.320312 -7.960938 7.378906 -12 4.5 -12 C 2.179688 -12 0.71875 -8.917969 0.71875 -5.417969 Z M 4.5 -1.761719 C 2.699219 -1.761719 2.640625 -3.679688 2.640625 -5.417969 C 2.640625 -6.398438 2.699219 -10.480469 4.5 -10.480469 C 6.320312 -10.480469 6.398438 -6.378906 6.398438 -5.417969 C 6.398438 -3.640625 6.320312 -1.761719 4.5 -1.761719 Z M 4.5 -1.761719 "/></g></g></g><g fill="#121010" fill-opacity="1"><g transform="translate(47.21115, 43.665921)"><g><path d="M 0.738281 -11.519531 L 2.660156 -1.019531 C 2.738281 -0.601562 3.078125 0 3.738281 0 L 4.800781 0 C 5.441406 0 5.757812 -0.578125 5.859375 -1.019531 L 8.300781 -11.480469 C 8.300781 -11.5 8.320312 -11.597656 8.320312 -11.640625 C 8.320312 -11.777344 8.257812 -12 7.980469 -12 L 7.019531 -12 C 6.960938 -12 6.800781 -12 6.71875 -11.738281 L 4.738281 -2.558594 C 4.699219 -2.398438 4.621094 -2.320312 4.5 -2.320312 C 4.339844 -2.320312 4.257812 -2.398438 4.238281 -2.558594 L 2.5 -11.738281 C 2.480469 -11.917969 2.378906 -12 2.179688 -12 L 1.058594 -12 C 0.878906 -12 0.71875 -11.839844 0.71875 -11.617188 C 0.71875 -11.578125 0.738281 -11.558594 0.738281 -11.519531 Z M 0.738281 -11.519531 "/></g></g></g><g fill="#121010" fill-opacity="1"><g transform="translate(56.249734, 43.665921)"><g><path d="M 8.179688 -0.679688 L 5.378906 -5.160156 C 5.300781 -5.28125 5.257812 -5.398438 5.257812 -5.5 C 5.257812 -6.019531 7.839844 -6.660156 7.839844 -7.980469 L 7.839844 -10.957031 C 7.839844 -11.597656 7.480469 -12 6.859375 -12 L 1.039062 -12 C 0.859375 -12 0.71875 -11.859375 0.71875 -11.640625 L 0.71875 -0.320312 C 0.71875 -0.160156 0.859375 0 1.058594 0 L 2.28125 0 C 2.5 0 2.640625 -0.140625 2.640625 -0.320312 L 2.640625 -10.117188 C 2.640625 -10.21875 2.699219 -10.480469 2.980469 -10.480469 L 5.441406 -10.480469 C 5.597656 -10.480469 5.757812 -10.359375 5.757812 -10.160156 L 5.757812 -7.980469 C 5.757812 -7.578125 5.460938 -7.097656 4.980469 -7.097656 L 3.519531 -7.097656 C 3.257812 -7.097656 3.121094 -6.960938 3.121094 -6.699219 L 3.121094 -5.539062 C 3.121094 -5.417969 3.160156 -5.300781 3.21875 -5.179688 L 6.199219 -0.339844 C 6.359375 -0.0585938 6.558594 0 6.640625 0 L 7.878906 0 C 8.160156 0 8.320312 -0.121094 8.320312 -0.339844 C 8.320312 -0.539062 8.199219 -0.660156 8.179688 -0.679688 Z M 8.179688 -0.679688 "/></g></g></g><g fill="#121010" fill-opacity="1"><g transform="translate(65.288319, 43.665921)"><g><path d="M 7.980469 -12 L 6.757812 -12 C 6.539062 -12 6.398438 -11.859375 6.398438 -11.679688 L 6.398438 -4.121094 C 6.398438 -3.039062 5.679688 -1.839844 4.257812 -1.839844 C 3.378906 -1.839844 2.640625 -2.460938 2.640625 -3.378906 L 2.640625 -11.679688 C 2.640625 -11.878906 2.480469 -12 2.320312 -12 L 1.039062 -12 C 0.859375 -12 0.71875 -11.859375 0.71875 -11.640625 L 0.71875 -3.320312 C 0.71875 -1.460938 1.578125 0.160156 3.578125 0.160156 C 5.179688 0.160156 6.28125 -1.121094 6.460938 -1.121094 C 6.539062 -1.121094 6.558594 -1.078125 6.558594 -1.019531 L 6.558594 -0.339844 C 6.558594 -0.160156 6.699219 0 6.898438 0 L 7.980469 0 C 8.257812 0 8.320312 -0.261719 8.320312 -0.359375 L 8.320312 -11.679688 C 8.320312 -11.839844 8.199219 -12 7.980469 -12 Z M 7.980469 -12 "/></g></g></g><g fill="#121010" fill-opacity="1"><g transform="translate(74.326903, 43.665921)"><g><path d="M 1.160156 0 L 1.980469 0 C 2.039062 0 2.359375 -0.0195312 2.378906 -0.28125 L 2.71875 -2.039062 C 2.78125 -2.320312 2.859375 -2.398438 3.058594 -2.398438 L 5.78125 -2.398438 C 5.960938 -2.398438 6.078125 -2.28125 6.121094 -2.039062 L 6.4375 -0.28125 C 6.480469 -0.101562 6.640625 0 6.898438 0 L 7.777344 0 C 8.140625 0 8.320312 -0.179688 8.320312 -0.519531 C 8.320312 -0.601562 8.300781 -0.679688 8.277344 -0.761719 L 6.160156 -11.519531 C 6.078125 -11.859375 5.839844 -12 5.460938 -12 L 3.558594 -12 C 3.300781 -12 2.859375 -11.796875 2.78125 -11.339844 L 0.761719 -0.761719 C 0.738281 -0.679688 0.71875 -0.601562 0.71875 -0.519531 C 0.71875 -0.0390625 1.058594 0 1.160156 0 Z M 3.160156 -4.320312 L 3.160156 -4.378906 L 4.179688 -9.839844 C 4.21875 -10 4.320312 -10.078125 4.441406 -10.078125 C 4.558594 -10.078125 4.679688 -10 4.699219 -9.839844 L 5.699219 -4.378906 C 5.738281 -4.140625 5.578125 -4 5.339844 -4 L 3.5 -4 C 3.320312 -4 3.160156 -4.140625 3.160156 -4.320312 Z M 3.160156 -4.320312 "/></g></g></g></svg>