<svg xmlns="http://www.w3.org/2000/svg" xmlns:xlink="http://www.w3.org/1999/xlink" width="150" zoomAndPan="magnify" viewBox="0 0 112.5 56.249996" height="75" preserveAspectRatio="xMidYMid meet" version="1.0"><defs><g/></defs><g fill="#ffde59" fill-opacity="1"><g transform="translate(14.445636, 37.033025)"><g><path d="M 12.332031 -18.5 L 11.191406 -18.5 C 10.882812 -18.5 10.636719 -18.375 10.515625 -18.097656 L 7.277344 -10.515625 C 7.246094 -10.390625 7.121094 -10.328125 6.96875 -10.328125 C 6.785156 -10.328125 6.691406 -10.390625 6.660156 -10.515625 L 3.421875 -18.097656 C 3.300781 -18.375 3.082031 -18.5 2.746094 -18.5 L 1.601562 -18.5 C 1.324219 -18.5 1.109375 -18.285156 1.109375 -17.945312 L 1.109375 -0.492188 C 1.109375 -0.246094 1.324219 0 1.632812 0 L 3.269531 0 C 3.609375 0 3.824219 -0.214844 3.824219 -0.492188 L 3.824219 -12.179688 C 3.824219 -12.273438 3.886719 -12.332031 4.007812 -12.332031 C 4.101562 -12.332031 4.191406 -12.273438 4.253906 -12.179688 L 6.382812 -6.320312 C 6.476562 -6.074219 6.691406 -5.949219 6.96875 -5.949219 C 7.277344 -5.949219 7.460938 -6.074219 7.554688 -6.320312 L 9.710938 -12.179688 C 9.742188 -12.273438 9.835938 -12.332031 9.960938 -12.332031 C 10.050781 -12.273438 10.113281 -12.242188 10.113281 -12.179688 L 10.113281 -0.492188 C 10.113281 -0.214844 10.390625 0 10.667969 0 L 12.332031 0 C 12.609375 0 12.828125 -0.246094 12.828125 -0.492188 L 12.828125 -17.945312 C 12.828125 -18.285156 12.609375 -18.5 12.332031 -18.5 Z M 12.332031 -18.5 "/></g></g></g><g fill="#ffde59" fill-opacity="1"><g transform="translate(28.381545, 37.033025)"><g><path d="M 1.109375 -8.355469 C 1.109375 -3.453125 1.820312 0.246094 6.9375 0.246094 C 11.902344 0.246094 12.828125 -3.144531 12.828125 -8.355469 C 12.828125 -12.273438 11.378906 -18.5 6.9375 -18.5 C 3.359375 -18.5 1.109375 -13.75 1.109375 -8.355469 Z M 6.9375 -2.714844 C 4.164062 -2.714844 4.070312 -5.671875 4.070312 -8.355469 C 4.070312 -9.867188 4.164062 -16.15625 6.9375 -16.15625 C 9.742188 -16.15625 9.867188 -9.835938 9.867188 -8.355469 C 9.867188 -5.613281 9.742188 -2.714844 6.9375 -2.714844 Z M 6.9375 -2.714844 "/></g></g></g><g fill="#ffde59" fill-opacity="1"><g transform="translate(42.317455, 37.033025)"><g><path d="M 1.140625 -17.761719 L 4.101562 -1.574219 C 4.222656 -0.925781 4.75 0 5.765625 0 L 7.398438 0 C 8.386719 0 8.878906 -0.894531 9.035156 -1.574219 L 12.796875 -17.699219 C 12.796875 -17.730469 12.828125 -17.882812 12.828125 -17.945312 C 12.828125 -18.160156 12.734375 -18.5 12.300781 -18.5 L 10.824219 -18.5 C 10.730469 -18.5 10.484375 -18.5 10.359375 -18.097656 L 7.308594 -3.945312 C 7.246094 -3.699219 7.121094 -3.578125 6.9375 -3.578125 C 6.691406 -3.578125 6.566406 -3.699219 6.535156 -3.945312 L 3.855469 -18.097656 C 3.824219 -18.375 3.667969 -18.5 3.359375 -18.5 L 1.632812 -18.5 C 1.355469 -18.5 1.109375 -18.253906 1.109375 -17.914062 C 1.109375 -17.851562 1.140625 -17.820312 1.140625 -17.761719 Z M 1.140625 -17.761719 "/></g></g></g><g fill="#ffde59" fill-opacity="1"><g transform="translate(56.253364, 37.033025)"><g><path d="M 12.609375 -1.046875 L 8.292969 -7.953125 C 8.171875 -8.140625 8.109375 -8.324219 8.109375 -8.480469 C 8.109375 -9.28125 12.085938 -10.265625 12.085938 -12.300781 L 12.085938 -16.898438 C 12.085938 -17.882812 11.53125 -18.5 10.574219 -18.5 L 1.601562 -18.5 C 1.324219 -18.5 1.109375 -18.285156 1.109375 -17.945312 L 1.109375 -0.492188 C 1.109375 -0.246094 1.324219 0 1.632812 0 L 3.515625 0 C 3.855469 0 4.070312 -0.214844 4.070312 -0.492188 L 4.070312 -15.601562 C 4.070312 -15.753906 4.164062 -16.15625 4.59375 -16.15625 L 8.386719 -16.15625 C 8.632812 -16.15625 8.878906 -15.972656 8.878906 -15.664062 L 8.878906 -12.300781 C 8.878906 -11.6875 8.417969 -10.945312 7.675781 -10.945312 L 5.425781 -10.945312 C 5.027344 -10.945312 4.808594 -10.730469 4.808594 -10.328125 L 4.808594 -8.539062 C 4.808594 -8.355469 4.871094 -8.171875 4.964844 -7.984375 L 9.558594 -0.523438 C 9.804688 -0.09375 10.113281 0 10.238281 0 L 12.148438 0 C 12.578125 0 12.828125 -0.183594 12.828125 -0.523438 C 12.828125 -0.832031 12.640625 -1.015625 12.609375 -1.046875 Z M 12.609375 -1.046875 "/></g></g></g><g fill="#ffde59" fill-opacity="1"><g transform="translate(70.189274, 37.033025)"><g><path d="M 12.300781 -18.5 L 10.421875 -18.5 C 10.082031 -18.5 9.867188 -18.285156 9.867188 -18.007812 L 9.867188 -6.351562 C 9.867188 -4.6875 8.757812 -2.835938 6.566406 -2.835938 C 5.210938 -2.835938 4.070312 -3.792969 4.070312 -5.210938 L 4.070312 -18.007812 C 4.070312 -18.316406 3.824219 -18.5 3.578125 -18.5 L 1.601562 -18.5 C 1.324219 -18.5 1.109375 -18.285156 1.109375 -17.945312 L 1.109375 -5.117188 C 1.109375 -2.25 2.4375 0.246094 5.519531 0.246094 C 7.984375 0.246094 9.683594 -1.726562 9.960938 -1.726562 C 10.082031 -1.726562 10.113281 -1.664062 10.113281 -1.574219 L 10.113281 -0.523438 C 10.113281 -0.246094 10.328125 0 10.636719 0 L 12.300781 0 C 12.734375 0 12.828125 -0.402344 12.828125 -0.554688 L 12.828125 -18.007812 C 12.828125 -18.253906 12.640625 -18.5 12.300781 -18.5 Z M 12.300781 -18.5 "/></g></g></g><g fill="#ffde59" fill-opacity="1"><g transform="translate(84.125183, 37.033025)"><g><path d="M 1.789062 0 L 3.050781 0 C 3.144531 0 3.636719 -0.03125 3.667969 -0.433594 L 4.191406 -3.144531 C 4.285156 -3.578125 4.410156 -3.699219 4.71875 -3.699219 L 8.910156 -3.699219 C 9.1875 -3.699219 9.375 -3.515625 9.433594 -3.144531 L 9.929688 -0.433594 C 9.988281 -0.152344 10.238281 0 10.636719 0 L 11.996094 0 C 12.550781 0 12.828125 -0.277344 12.828125 -0.800781 C 12.828125 -0.925781 12.796875 -1.046875 12.765625 -1.171875 L 9.496094 -17.761719 C 9.375 -18.285156 9.003906 -18.5 8.417969 -18.5 L 5.488281 -18.5 C 5.085938 -18.5 4.410156 -18.191406 4.285156 -17.484375 L 1.171875 -1.171875 C 1.140625 -1.046875 1.109375 -0.925781 1.109375 -0.800781 C 1.109375 -0.0625 1.632812 0 1.789062 0 Z M 4.871094 -6.660156 L 4.871094 -6.753906 L 6.445312 -15.171875 C 6.503906 -15.417969 6.660156 -15.539062 6.84375 -15.539062 C 7.03125 -15.539062 7.214844 -15.417969 7.246094 -15.171875 L 8.789062 -6.753906 C 8.847656 -6.382812 8.601562 -6.167969 8.234375 -6.167969 L 5.394531 -6.167969 C 5.117188 -6.167969 4.871094 -6.382812 4.871094 -6.660156 Z M 4.871094 -6.660156 "/></g></g></g></svg>